# xmcd
#
# Track frame offsets: 
#        150
#        29832
#        53652
#        71755
#        96982
#        173160
#        191502
#        241297
#
# Disc length: 3635 seconds
#
# Revision: 0
# Processed by: cddbd v1.5.2PL0 Copyright (c) Steve Scherf et al.
# Submitted via: ExactAudioCopy v0.99pb5
#
DISCID=6e0e3108
DTITLE=Cream - Live Cream Volume 3
DYEAR=1968
DGENRE=Rock
TTITLE0=White Room
TTITLE1=Politician
TTITLE2=Crossroads
TTITLE3=Sunshine Of Your Love
TTITLE4=Spoonful
TTITLE5=Deserted Cities Of The Heart
TTITLE6=Passing The Time - Drum Solo
TTITLE7=I'm So Glad
EXTD=
EXTT0=
EXTT1=
EXTT2=
EXTT3=
EXTT4=
EXTT5=
EXTT6=
EXTT7=
PLAYORDER=
